<?xml version="1.0" encoding="utf-8"?>
<!-- Generator: Adobe Illustrator 23.0.1, SVG Export Plug-In . SVG Version: 6.00 Build 0)  -->
<svg version="1.1" id="Livello_1" xmlns="http://www.w3.org/2000/svg" xmlns:xlink="http://www.w3.org/1999/xlink" x="0px" y="0px"
	 width="295.9px" height="295.9px" viewBox="0 0 295.9 295.9" enable-background="new 0 0 295.9 295.9" xml:space="preserve">
<path fill="#FFCD00" stroke="#FFB72A" stroke-width="6.9044" d="M292.5,148c0,79.8-64.7,144.5-144.5,144.5S3.5,227.7,3.5,148
	S68.2,3.5,148,3.5S292.5,68.2,292.5,148L292.5,148z"/>
<g>
	<path fill="#D29A02" d="M145.1,163.4c0,18.6-15.1,33.8-33.8,33.8c-18.6,0-33.8-15.2-33.8-33.8s15.2-33.8,33.8-33.8
		C130,129.6,145.1,144.8,145.1,163.4 M111.4,135.2c-15.6,0-28.2,12.6-28.2,28.2s12.6,28.2,28.2,28.2s28.2-12.6,28.2-28.2
		S126.8,135.2,111.4,135.2"/>
	<path fill="#D29A02" d="M218.4,163.4c0,18.6-15.1,33.8-33.8,33.8c-18.6,0-33.8-15.2-33.8-33.8s15.2-33.8,33.8-33.8
		C203.3,129.6,218.4,144.8,218.4,163.4 M184.5,135.2c-15.6,0-28.2,12.6-28.2,28.2s12.6,28.2,28.2,28.2s28.2-12.6,28.2-28.2
		S200.1,135.2,184.5,135.2"/>
	<path fill="#D29A02" d="M108.5,132.5c0,18.6-15.2,33.8-33.8,33.8s-33.8-15.2-33.8-33.8c0-18.6,15.1-33.8,33.8-33.8
		C93.3,98.6,108.5,113.8,108.5,132.5 M74.7,104.3c-15.6,0-28.2,12.6-28.2,28.2s12.6,28.2,28.2,28.2s28.2-12.6,28.2-28.2
		S90.3,104.3,74.7,104.3"/>
	<path fill="#D29A02" d="M181.8,132.5c0,18.6-15.2,33.8-33.8,33.8s-33.8-15.2-33.8-33.8c0-18.6,15.2-33.8,33.8-33.8
		C166.6,98.6,181.8,113.8,181.8,132.5 M148,104.3c-15.6,0-28.2,12.6-28.2,28.2s12.6,28.2,28.2,28.2s28.2-12.6,28.2-28.2
		S163.5,104.3,148,104.3"/>
	<path fill="#D29A02" d="M255.1,132.5c0,18.6-15.2,33.8-33.8,33.8c-18.6,0-33.8-15.2-33.8-33.8c0-18.6,15.2-33.8,33.8-33.8
		S255.1,113.8,255.1,132.5 M221.2,104.3c-15.6,0-28.2,12.6-28.2,28.2s12.6,28.2,28.2,28.2s28.2-12.6,28.2-28.2
		S236.8,104.3,221.2,104.3"/>
</g>
</svg>
